<?xml version="1.0" encoding="UTF-8"?>
<svg id="Calque_1" data-name="Calque 1" xmlns="http://www.w3.org/2000/svg" viewBox="0 0 569.02 136.69">
  <defs>
    <style>
      .cls-1 {
        fill: #df1f26;
      }

      .cls-1, .cls-2, .cls-3, .cls-4, .cls-5, .cls-6, .cls-7, .cls-8 {
        stroke-width: 0px;
      }

      .cls-9, .cls-10, .cls-11 {
        isolation: isolate;
      }

      .cls-9, .cls-11 {
        font-family: Marianne-Bold, Marianne;
        font-size: 24.46px;
        font-weight: 700;
      }

      .cls-2 {
        fill: #5c72b7;
      }

      .cls-4 {
        fill: #274185;
      }

      .cls-5 {
        fill: gray;
      }

      .cls-6 {
        fill: #2b2e81;
      }

      .cls-11 {
        letter-spacing: .03em;
      }

      .cls-7 {
        fill: #ffcb05;
      }

      .cls-8 {
        fill: #008473;
      }
    </style>
  </defs>
  <g id="b">
    <g>
      <g>
        <g>
          <path class="cls-4" d="m211.12,50.26c0-6.78,5.27-11.69,14.82-13.3l14.55-2.41v-2.32c0-5.53-4.11-8.92-9.91-8.92-4.91,0-8.75,2.23-11.33,5.89l-6.87-5.27c4.02-5.35,10.44-8.75,18.47-8.75,12.14,0,18.83,7.14,18.83,17.05v29.72h-9.19v-5.09c-3.21,3.93-8.84,6.43-14.37,6.43-8.92,0-14.99-5.09-14.99-13.03h-.01Zm16.69,5.53c5.62,0,10-2.68,12.67-6.96v-7.76l-12.14,2.05c-5.62.98-7.94,3.39-7.94,6.78s2.77,5.89,7.41,5.89Z"/>
          <path class="cls-4" d="m254.68,16.97h9.19v4.37c3.39-3.57,7.85-6.16,14.28-6.16,9.91,0,17.49,6.69,17.49,19.72v27.04h-9.28v-26.68c0-7.14-3.93-11.42-10.35-11.42s-9.82,3.84-12.14,7.76v30.34h-9.19V16.97h0Z"/>
        </g>
        <g>
          <path class="cls-4" d="m248.33,106.28l7.4,5.67c-4.21,5.67-10.97,9.32-19.47,9.32-15.45,0-25.14-11.43-25.14-24.86s9.69-24.86,25.14-24.86c8.41,0,15.27,3.66,19.47,9.32l-7.4,5.67c-2.56-3.57-6.76-6.12-12.07-6.12-8.87,0-15.27,6.95-15.27,16s6.4,16,15.36,16c5.21,0,9.42-2.56,11.98-6.12v-.02Z"/>
          <path class="cls-4" d="m270.26,82.81h-9.99v-8.3h9.99v-11.25h9.28v11.25h16.1v8.3h-16.1v21.06c0,6.07,3.21,8.03,8.21,8.03,3.03,0,6.28-.36,7.88-.98v8.12c-2.14.89-5.83,1.34-9.31,1.34-10.53,0-16.06-5.53-16.06-16.51,0,0,0-21.06,0-21.06Z"/>
        </g>
        <path class="cls-4" d="m301.88,9.01v6.18h8.94V6.52c0-3.13-2.77-6.32-5.9-6.52h-9.28v8.63l6.24.38Z"/>
        <path class="cls-7" d="m301.88,127.68v-6.18h8.94v8.67c0,3.13-2.78,6.32-5.9,6.52h-9.28v-8.63l6.24-.38Z"/>
        <path class="cls-2" d="m204.88,127.68v-6.18h-8.94v8.67c0,3.13,2.78,6.32,5.9,6.52h9.28v-8.63l-6.24-.38h0Z"/>
        <path class="cls-8" d="m204.88,9.01v6.18h-8.94V6.52c0-3.13,2.78-6.32,5.9-6.52h9.28v8.63l-6.24.38h0Z"/>
      </g>
      <g>
        <path class="cls-4" d="m341.49,41.87c0-1.6,1.22-2.73,3.47-3.11l3.57-.59v-.74c0-1.47-1.05-2.31-2.57-2.31-1.22,0-2.21.57-2.86,1.47l-1.35-1.03c.93-1.26,2.42-2.04,4.27-2.04,2.69,0,4.29,1.58,4.29,3.91v7.11h-1.79v-1.35c-.8,1.03-2.19,1.64-3.55,1.64-2.08,0-3.49-1.16-3.49-2.96h0Zm3.78,1.49c1.41,0,2.57-.67,3.26-1.81v-2.08l-3.13.53c-1.45.25-2.1.9-2.1,1.81s.74,1.56,1.98,1.56h-.01Z"/>
        <path class="cls-4" d="m358.06,43.78c-.48-.38-.74-.95-.74-1.51,0-.84.44-1.54,1.26-2.06-.93-.69-1.47-1.77-1.47-2.94,0-2.04,1.6-3.76,4.12-3.76.78,0,1.47.17,2.04.44h3.93v1.56h-2.29c.29.53.44,1.14.44,1.77,0,2.02-1.58,3.74-4.12,3.74-.53,0-1.03-.08-1.47-.21-.44.32-.69.69-.69,1.09,0,.44.23.76.88.76h3.03c2.8,0,4.1,1.37,4.1,3.26,0,2.23-2.23,3.89-5.4,3.89s-5.19-1.22-5.19-3.34c0-1.07.53-1.93,1.58-2.67v-.02Zm3.6,4.52c2.23,0,3.64-.88,3.64-2.27,0-1.01-.57-1.81-2.46-1.81h-3.43c-.74.55-1.18,1.18-1.18,2.02,0,1.28,1.32,2.06,3.43,2.06h0Zm2.02-11.04c0-1.3-.88-2.35-2.42-2.35s-2.44,1.05-2.44,2.35.86,2.33,2.44,2.33,2.42-1.05,2.42-2.33Z"/>
        <path class="cls-4" d="m377.59,44.96c-3.57,0-5.78-2.63-5.78-5.72s2.06-5.72,5.34-5.72c2.88,0,4.75,2.02,4.75,4.63,0,.42-.06.82-.13,1.11h-8.14c.06,2.54,1.68,4.08,3.95,4.08,1.37,0,2.52-.63,3.22-1.58l1.32,1.03c-.99,1.32-2.57,2.17-4.54,2.17h.01Zm-3.83-7.07h6.35c-.06-1.56-1.14-2.86-3.01-2.86-1.75,0-2.97,1.03-3.34,2.86Z"/>
        <path class="cls-4" d="m388.72,33.94h1.79v1.2c.86-.95,1.96-1.62,3.53-1.62,2.38,0,4.14,1.6,4.14,4.6v6.41h-1.79v-6.35c0-1.89-1.07-2.99-2.71-2.99-1.54,0-2.5.88-3.18,2v7.34h-1.79v-10.6h0Z"/>
        <path class="cls-4" d="m413.46,41.72l1.41,1.07c-.99,1.32-2.52,2.17-4.46,2.17-3.51,0-5.76-2.63-5.76-5.72s2.25-5.72,5.76-5.72c1.91,0,3.47.86,4.46,2.17l-1.41,1.07c-.65-.93-1.72-1.56-3.05-1.56-2.27,0-3.89,1.79-3.89,4.04s1.62,4.04,3.91,4.04c1.3,0,2.38-.63,3.03-1.56Z"/>
        <path class="cls-4" d="m425.57,44.96c-3.57,0-5.78-2.63-5.78-5.72s2.06-5.72,5.34-5.72c2.88,0,4.75,2.02,4.75,4.63,0,.42-.06.82-.13,1.11h-8.14c.06,2.54,1.68,4.08,3.95,4.08,1.37,0,2.52-.63,3.22-1.58l1.32,1.03c-.99,1.32-2.57,2.17-4.54,2.17h.01Zm-3.83-7.07h6.35c-.06-1.56-1.14-2.86-3.01-2.86-1.75,0-2.97,1.03-3.34,2.86Z"/>
        <path class="cls-4" d="m446.16,33.94h1.79v1.2c.86-.95,1.96-1.62,3.53-1.62,2.38,0,4.14,1.6,4.14,4.6v6.41h-1.79v-6.35c0-1.89-1.07-2.99-2.71-2.99-1.54,0-2.5.88-3.17,2v7.34h-1.79v-10.6h0Z"/>
        <path class="cls-4" d="m462.39,41.87c0-1.6,1.22-2.73,3.47-3.11l3.57-.59v-.74c0-1.47-1.05-2.31-2.57-2.31-1.22,0-2.21.57-2.86,1.47l-1.35-1.03c.93-1.26,2.42-2.04,4.27-2.04,2.69,0,4.29,1.58,4.29,3.91v7.11h-1.79v-1.35c-.8,1.03-2.19,1.64-3.55,1.64-2.08,0-3.49-1.16-3.49-2.96h0Zm3.78,1.49c1.41,0,2.57-.67,3.26-1.81v-2.08l-3.13.53c-1.45.25-2.1.9-2.1,1.81s.74,1.56,1.98,1.56h-.01Z"/>
        <path class="cls-4" d="m479.21,35.56h-2v-1.62h2v-2.65h1.81v2.65h3.68v1.62h-3.68v5.43c0,1.66.84,2.12,2.12,2.12.69,0,1.18-.08,1.58-.25v1.6c-.5.21-1.07.29-1.83.29-2.35,0-3.68-1.18-3.68-3.76v-5.43Z"/>
        <path class="cls-4" d="m490.86,29.92c0-.67.57-1.24,1.26-1.24s1.24.57,1.24,1.24-.55,1.26-1.24,1.26-1.26-.57-1.26-1.26Zm.36,4.02h1.79v10.6h-1.79v-10.6Z"/>
        <path class="cls-4" d="m511.15,39.24c0,3.09-2.33,5.72-5.74,5.72s-5.74-2.63-5.74-5.72,2.31-5.72,5.74-5.72,5.74,2.63,5.74,5.72Zm-1.89,0c0-2.21-1.62-4.04-3.83-4.04s-3.89,1.83-3.89,4.04,1.62,4.04,3.89,4.04,3.83-1.85,3.83-4.04Z"/>
        <path class="cls-4" d="m517.81,33.94h1.79v1.2c.86-.95,1.96-1.62,3.53-1.62,2.38,0,4.14,1.6,4.14,4.6v6.41h-1.79v-6.35c0-1.89-1.07-2.99-2.71-2.99-1.54,0-2.5.88-3.17,2v7.34h-1.79v-10.6h0Z"/>
        <path class="cls-4" d="m534.04,41.87c0-1.6,1.22-2.73,3.47-3.11l3.57-.59v-.74c0-1.47-1.05-2.31-2.57-2.31-1.22,0-2.21.57-2.86,1.47l-1.35-1.03c.93-1.26,2.42-2.04,4.27-2.04,2.69,0,4.29,1.58,4.29,3.91v7.11h-1.79v-1.35c-.8,1.03-2.19,1.64-3.55,1.64-2.08,0-3.49-1.16-3.49-2.96h0Zm3.78,1.49c1.41,0,2.57-.67,3.26-1.81v-2.08l-3.13.53c-1.45.25-2.1.9-2.1,1.81s.74,1.56,1.98,1.56h-.01Z"/>
        <path class="cls-4" d="m550.26,28.77h1.79v15.77h-1.79v-15.77Z"/>
        <path class="cls-4" d="m564.49,44.96c-3.57,0-5.78-2.63-5.78-5.72s2.06-5.72,5.34-5.72c2.88,0,4.75,2.02,4.75,4.63,0,.42-.06.82-.13,1.11h-8.14c.06,2.54,1.68,4.08,3.95,4.08,1.37,0,2.52-.63,3.22-1.58l1.32,1.03c-.99,1.32-2.56,2.17-4.54,2.17h.01Zm-3.83-7.07h6.35c-.06-1.56-1.14-2.86-3.01-2.86-1.75,0-2.96,1.03-3.34,2.86h0Z"/>
        <path class="cls-4" d="m346.64,59.8c1.58,0,2.82.61,3.76,1.68v-6.43h1.79v15.77h-1.79v-1.26c-.95,1.07-2.19,1.68-3.76,1.68-3.32,0-5.45-2.63-5.45-5.72s2.12-5.72,5.45-5.72Zm.21,9.76c1.47,0,2.78-.72,3.55-1.96v-4.16c-.82-1.26-2.1-1.96-3.55-1.96-2.25,0-3.76,1.79-3.76,4.04s1.51,4.04,3.76,4.04Z"/>
        <path class="cls-4" d="m364.62,71.24c-3.57,0-5.78-2.63-5.78-5.72s2.06-5.72,5.34-5.72c2.88,0,4.75,2.02,4.75,4.63,0,.42-.06.82-.13,1.11h-8.14c.06,2.54,1.68,4.08,3.95,4.08,1.37,0,2.52-.63,3.22-1.58l1.32,1.03c-.99,1.32-2.56,2.17-4.54,2.17h.01Zm-3.83-7.07h6.35c-.06-1.56-1.14-2.86-3.01-2.86-1.75,0-2.96,1.03-3.34,2.86Z"/>
        <path class="cls-4" d="m385.2,55.05h1.79v15.77h-1.79v-15.77Z"/>
        <path class="cls-4" d="m393.95,68.15c0-1.6,1.22-2.73,3.47-3.11l3.57-.59v-.74c0-1.47-1.05-2.31-2.56-2.31-1.22,0-2.21.57-2.86,1.47l-1.35-1.03c.93-1.26,2.42-2.04,4.27-2.04,2.69,0,4.29,1.58,4.29,3.91v7.11h-1.79v-1.35c-.8,1.03-2.19,1.64-3.55,1.64-2.08,0-3.49-1.16-3.49-2.96h0Zm3.78,1.49c1.41,0,2.56-.67,3.26-1.81v-2.08l-3.13.53c-1.45.25-2.1.9-2.1,1.81s.74,1.56,1.98,1.56h-.01Z"/>
        <path class="cls-4" d="m427.53,68l1.41,1.07c-.99,1.32-2.52,2.17-4.46,2.17-3.51,0-5.76-2.63-5.76-5.72s2.25-5.72,5.76-5.72c1.91,0,3.47.86,4.46,2.17l-1.41,1.07c-.65-.93-1.72-1.56-3.05-1.56-2.27,0-3.89,1.79-3.89,4.04s1.62,4.04,3.91,4.04c1.3,0,2.38-.63,3.03-1.56Z"/>
        <path class="cls-4" d="m445.34,65.52c0,3.09-2.33,5.72-5.74,5.72s-5.74-2.63-5.74-5.72,2.31-5.72,5.74-5.72,5.74,2.63,5.74,5.72Zm-1.89,0c0-2.21-1.62-4.04-3.83-4.04s-3.89,1.83-3.89,4.04,1.62,4.04,3.89,4.04,3.83-1.85,3.83-4.04Z"/>
        <path class="cls-4" d="m452,55.05h1.79v6.37c.86-.95,1.96-1.62,3.53-1.62,2.38,0,4.14,1.6,4.14,4.6v6.41h-1.79v-6.35c0-1.89-1.05-2.99-2.71-2.99-1.56,0-2.5.9-3.18,2v7.34h-1.79v-15.77h0Z"/>
        <path class="cls-4" d="m473.72,71.24c-3.57,0-5.78-2.63-5.78-5.72s2.06-5.72,5.34-5.72c2.88,0,4.75,2.02,4.75,4.63,0,.42-.06.82-.13,1.11h-8.14c.06,2.54,1.68,4.08,3.95,4.08,1.37,0,2.52-.63,3.22-1.58l1.32,1.03c-.99,1.32-2.56,2.17-4.54,2.17h.01Zm-3.83-7.07h6.35c-.06-1.56-1.14-2.86-3.01-2.86-1.75,0-2.96,1.03-3.34,2.86Zm2.59-5.64l2.19-3.49h2.02l-2.46,3.49h-1.75Z"/>
        <path class="cls-4" d="m484.89,68.3c.74.93,1.62,1.45,2.69,1.45,1.18,0,1.85-.72,1.85-1.64,0-2.38-5.3-1.54-5.3-5.28,0-1.66,1.41-3.03,3.45-3.03,1.51,0,2.82.72,3.55,1.75l-1.24,1.05c-.57-.8-1.37-1.3-2.29-1.3-1.14,0-1.75.67-1.75,1.49,0,2.38,5.32,1.62,5.32,5.24-.02,1.98-1.6,3.22-3.57,3.22-1.68,0-3.01-.67-3.97-1.87l1.26-1.07h0Z"/>
        <path class="cls-4" d="m497.5,56.2c0-.67.57-1.24,1.26-1.24s1.24.57,1.24,1.24-.55,1.26-1.24,1.26-1.26-.57-1.26-1.26Zm.36,4.02h1.79v10.6h-1.79v-10.6Z"/>
        <path class="cls-4" d="m517.79,65.52c0,3.09-2.33,5.72-5.74,5.72s-5.74-2.63-5.74-5.72,2.31-5.72,5.74-5.72,5.74,2.63,5.74,5.72Zm-1.89,0c0-2.21-1.62-4.04-3.83-4.04s-3.89,1.83-3.89,4.04,1.62,4.04,3.89,4.04,3.83-1.85,3.83-4.04Z"/>
        <path class="cls-4" d="m524.46,60.22h1.79v1.2c.86-.95,1.96-1.62,3.53-1.62,2.38,0,4.14,1.6,4.14,4.6v6.41h-1.79v-6.35c0-1.89-1.07-2.99-2.71-2.99-1.54,0-2.5.88-3.17,2v7.34h-1.79v-10.6h0Z"/>
        <path class="cls-4" d="m346.64,86.08c1.58,0,2.82.61,3.76,1.68v-6.43h1.79v15.77h-1.79v-1.26c-.95,1.07-2.19,1.68-3.76,1.68-3.32,0-5.45-2.63-5.45-5.72s2.12-5.72,5.45-5.72Zm.21,9.76c1.47,0,2.78-.71,3.55-1.96v-4.16c-.82-1.26-2.1-1.96-3.55-1.96-2.25,0-3.76,1.79-3.76,4.04s1.51,4.04,3.76,4.04Z"/>
        <path class="cls-4" d="m364.62,97.52c-3.57,0-5.78-2.63-5.78-5.72s2.06-5.72,5.34-5.72c2.88,0,4.75,2.02,4.75,4.63,0,.42-.06.82-.13,1.11h-8.14c.06,2.54,1.68,4.08,3.95,4.08,1.37,0,2.52-.63,3.22-1.58l1.32,1.03c-.99,1.32-2.56,2.17-4.54,2.17h.01Zm-3.83-7.07h6.35c-.06-1.56-1.14-2.86-3.01-2.86-1.75,0-2.96,1.03-3.34,2.86Z"/>
        <path class="cls-4" d="m375.78,94.58c.74.93,1.62,1.45,2.69,1.45,1.18,0,1.85-.71,1.85-1.64,0-2.38-5.3-1.54-5.3-5.28,0-1.66,1.41-3.03,3.45-3.03,1.51,0,2.82.72,3.55,1.75l-1.24,1.05c-.57-.8-1.37-1.3-2.29-1.3-1.14,0-1.75.67-1.75,1.49,0,2.38,5.32,1.62,5.32,5.24-.02,1.98-1.6,3.22-3.57,3.22-1.68,0-3.01-.67-3.97-1.87l1.26-1.07h0Z"/>
        <path class="cls-4" d="m398.83,88.12h-2v-1.62h2v-2.65h1.81v2.65h3.68v1.62h-3.68v5.43c0,1.66.84,2.12,2.12,2.12.69,0,1.18-.08,1.58-.25v1.6c-.5.21-1.07.29-1.83.29-2.35,0-3.68-1.18-3.68-3.76v-5.43Z"/>
        <path class="cls-4" d="m415.5,97.52c-3.57,0-5.78-2.63-5.78-5.72s2.06-5.72,5.34-5.72c2.88,0,4.75,2.02,4.75,4.63,0,.42-.06.82-.13,1.11h-8.14c.06,2.54,1.68,4.08,3.95,4.08,1.37,0,2.52-.63,3.22-1.58l1.32,1.03c-.99,1.32-2.57,2.17-4.54,2.17h.01Zm-3.83-7.07h6.35c-.06-1.56-1.14-2.86-3.01-2.86-1.75,0-2.97,1.03-3.34,2.86Z"/>
        <path class="cls-4" d="m426.62,86.5h1.79v1.32c.78-.92,1.75-1.53,3.09-1.53.34,0,.65.04.9.13v1.75c-.32-.08-.63-.13-1.05-.13-1.39,0-2.29.71-2.94,1.79v7.28h-1.79v-10.6h0Z"/>
        <path class="cls-4" d="m438.76,86.5h1.79v1.32c.78-.92,1.75-1.53,3.09-1.53.34,0,.65.04.9.13v1.75c-.32-.08-.63-.13-1.05-.13-1.39,0-2.29.71-2.94,1.79v7.28h-1.79v-10.6h0Z"/>
        <path class="cls-4" d="m450.53,82.49c0-.67.57-1.24,1.26-1.24s1.24.57,1.24,1.24-.55,1.26-1.24,1.26-1.26-.57-1.26-1.26Zm.36,4.02h1.79v10.6h-1.79v-10.6Z"/>
        <path class="cls-4" d="m460.85,88.12h-2v-1.62h2v-2.65h1.81v2.65h3.68v1.62h-3.68v5.43c0,1.66.84,2.12,2.12,2.12.69,0,1.18-.08,1.58-.25v1.6c-.5.21-1.07.29-1.83.29-2.35,0-3.68-1.18-3.68-3.76v-5.43Z"/>
        <path class="cls-4" d="m483.23,91.8c0,3.09-2.33,5.72-5.74,5.72s-5.74-2.63-5.74-5.72,2.31-5.72,5.74-5.72,5.74,2.63,5.74,5.72Zm-1.89,0c0-2.21-1.62-4.04-3.83-4.04s-3.89,1.83-3.89,4.04,1.62,4.04,3.89,4.04,3.83-1.85,3.83-4.04Z"/>
        <path class="cls-4" d="m489.53,82.49c0-.67.57-1.24,1.26-1.24s1.24.57,1.24,1.24-.55,1.26-1.24,1.26-1.26-.57-1.26-1.26Zm.36,4.02h1.79v10.6h-1.79v-10.6Z"/>
        <path class="cls-4" d="m499.25,86.5h1.79v1.32c.78-.92,1.75-1.53,3.09-1.53.34,0,.65.04.9.13v1.75c-.32-.08-.63-.13-1.05-.13-1.39,0-2.29.71-2.94,1.79v7.28h-1.79v-10.6h0Z"/>
        <path class="cls-4" d="m515.63,97.52c-3.57,0-5.78-2.63-5.78-5.72s2.06-5.72,5.34-5.72c2.88,0,4.75,2.02,4.75,4.63,0,.42-.06.82-.13,1.11h-8.14c.06,2.54,1.68,4.08,3.95,4.08,1.37,0,2.52-.63,3.22-1.58l1.32,1.03c-.99,1.32-2.57,2.17-4.54,2.17h.01Zm-3.83-7.07h6.35c-.06-1.56-1.14-2.86-3.01-2.86-1.75,0-2.97,1.03-3.34,2.86Z"/>
        <path class="cls-4" d="m526.79,94.58c.74.93,1.62,1.45,2.69,1.45,1.18,0,1.85-.71,1.85-1.64,0-2.38-5.3-1.54-5.3-5.28,0-1.66,1.41-3.03,3.45-3.03,1.51,0,2.82.72,3.55,1.75l-1.24,1.05c-.57-.8-1.37-1.3-2.29-1.3-1.14,0-1.75.67-1.75,1.49,0,2.38,5.32,1.62,5.32,5.24-.02,1.98-1.6,3.22-3.57,3.22-1.68,0-3.01-.67-3.97-1.87l1.26-1.07h0Z"/>
      </g>
    </g>
    <g>
      <g>
        <path class="cls-6" d="m27.98,20.22c.24-.24.48-.49.71-.75h0c.44-.5.88-.98,1.39-1.42.16-.14.31-.26.45-.36.04-.04.04-.13.08-.17-.21.08-.33.25-.54.33-.04,0-.08-.04-.04-.08.15-.11.3-.22.45-.33h-.03s-.04-.04-.04-.08c-.54-.08-.96.29-1.34.63-.08.04-.17-.04-.21-.04-.63.21-1.09.75-1.71,1v-.08c-.25.08-.49.24-.75.29-.38.08-.71.04-1.04.04-.51.05-1.01.16-1.52.27-.01,0-.03,0-.04.01-.27.07-.53.18-.78.31,0,0-.02.01-.03.02-.02.03-.04.05-.06.07-.09.1-.17.19-.29.25-.26.13-.47.36-.69.54-.02.01-.04.02-.07.02-.22.21-.45.43-.67.64-.02.02-.08.02-.13.02h0s.02-.03.02-.04c.04-.06.07-.12.11-.18s.08-.13.12-.19c.06-.09.11-.17.18-.25.02-.02.01-.04,0-.06-.01-.01-.04-.02-.06-.02.21-.2.46-.37.7-.52h0s-.07-.02-.05-.05c.03-.04.05-.08.07-.11,0-.01,0-.02.01-.04-.01,0-.02-.02-.03-.03-.07.04-.14.09-.2.14-.1.09-.18.27-.33.27h-.06s-.03,0-.04-.02h0v-.02h0s.01-.03.02-.04c0-.01.01-.02.02-.04l.02-.03.03-.05.02-.04s.04-.06.05-.09c0-.01.02-.03.03-.04.02-.03.03-.05.05-.08.02-.04,0-.06-.03-.07.08-.1.17-.18.29-.25h-.01c.16-.08.32-.18.48-.27.02-.02.05-.04.07-.06-.24.08-.45.19-.66.33,0,0-.05.02-.07.04,0,0-.05.02-.11-.04v-.03c.04-.08.17-.12.25-.21.04,0,.08,0,.08.04,1.34-1.04,3.18-.79,4.72-1.34.12-.08.25-.17.38-.25.21-.08.38-.29.63-.42.33-.25.58-.54.71-.96,0-.04-.04-.08-.04-.08-.54.58-1.17,1.04-1.84,1.38-.88.46-1.84.38-2.76.5.04-.08.13-.08.21-.08,0-.13.08-.17.17-.25h.13s.04-.08.08-.08c.08,0,.21-.04.17-.04-.12-.17-.38.12-.58,0,.08-.08.04-.21.13-.25h.17c0-.08.08-.17.08-.17.63-.38,1.21-.67,1.8-1-.12,0-.21.12-.33.04.08,0,0-.12.08-.12.46-.12.83-.38,1.29-.54-.17,0-.29.12-.46,0,.08-.04.12-.12.25-.12v-.12s.04-.04.08-.04c-.04,0-.08-.04-.08-.04.04-.08.17-.04.25-.12-.04,0-.12,0-.12-.04.12-.17.33-.21.54-.25-.04-.08-.17,0-.17-.08,0-.04.04-.04.08-.04h-.08c-.08-.04-.04-.12-.04-.17.25-.29.25-.67.38-1-.04,0-.08,0-.08-.04-.42.46-1.09.63-1.71.79h-.21c-.21.08-.5.08-.71-.04-.17-.08-.25-.21-.42-.33-.33-.21-.67-.38-1.04-.5-1.04-.33-2.13-.5-3.21-.46.46-.25.97-.27,1.46-.42.71-.21,1.38-.46,2.13-.42-.12-.04-.29,0-.42,0-.59-.04-1.17.13-1.8.25-.42.08-.79.25-1.21.33-.25.08-.38.33-.67.29v-.13c.42-.5.92-1,1.59-1.04.75-.12,1.46,0,2.21.08.54.04,1.04.17,1.59.29.21,0,.25.33.42.38.25.08.5,0,.75.17,0-.08-.04-.17,0-.25.17-.17.38.04.54-.04.33-.21-.29-.58-.46-.88,0-.04.04-.08.04-.08.33.29.58.63,1,.83.21.08.71.21.63-.04-.21-.46-.63-.84-.96-1.25v-.17c-.08,0-.08-.04-.12-.08v-.17c-.17-.08-.12-.25-.21-.38-.12-.21-.04-.5-.12-.75s-.13-.46-.17-.71c-.13-.71-.29-1.34-.38-2-.08-.79.46-1.42.83-2.13.29-.5.63-1,1.17-1.34.12-.5.46-.92.79-1.34.33-.41.89-.66,1.29-.84.58-.26,1.11-.42,1.11-.42H2.66v22.1h20.49c.8-.57,1.59-.85,2.7-1.39.52-.26,1.72-.81,2.13-1.21m-6.42-2.99c-.08,0-.25.04-.21-.04.04-.21.33-.21.5-.29.08-.04.21-.12.29-.08.08.13.21.08.29.17-.25.25-.58.12-.88.25m-6.39-.92s-.04-.04-.04-.08c.54-.71.96-1.38,1.34-2.13.54-.29.99-.72,1.42-1.17.71-.75,1.46-1.42,2.34-1.84.33-.12.75-.08,1.09.04-.13.17-.33.12-.5.25-.04,0-.08,0-.12-.04.04-.04.04-.08.04-.13-.42.46-1,.67-1.34,1.21-.25.42-.42.96-.96,1.09-.17.04.04-.12-.04-.08-1.3.79-2.21,1.76-3.22,2.88m3.47-2.76c-.04.08-.09.09-.12.17-.04.08-.08.12-.17.17-.04,0-.08,0-.08-.04.04-.17.17-.33.33-.38.04,0,.04.04.04.08m1.94,6.26s-.06.09-.1.12c.05.01.09.03.06.07-.1.09-.19.18-.32.22h-.06s-.1.1-.16.15c-.05.04-.28.01-.21-.05.11-.1.2-.2.31-.29.06-.05.12-.11.17-.17.03-.03.05-.07.09-.09s.26-.04.22.04m-.75-.35h0c-.16.11-.31.22-.48.32-.18.1-.37.18-.55.27h0s-.04-.04-.07-.03c-.16.09-.29.2-.42.32l-.06.06h0l-.06.06h0s-.06.07-.09.11c-.02.02-.03.04-.06.06-.03.02-.1.02-.09-.03h0s-.05.03-.07.04-.04.02-.07.04h-.03s-.02,0-.03.01c-.05.04-.1.08-.15.13-.09.08-.17.17-.24.26h0s0,.02-.01.03v.02h-.02s-.02.03-.03.04h0s-.02.01-.03.02c0,0-.01-.02-.02-.02,0,0,0-.01-.01-.02-.01-.02-.03-.04-.04-.07h0v-.02s.09-.1.13-.15h0s.03-.05.04-.06c.02-.03.05-.06.07-.09,0-.01.02-.02.02-.03.05-.06.09-.12.13-.17h0s.01-.02.02-.03c.02-.03.04-.06.06-.09.02-.03.03-.05.05-.08h0v-.02s.03-.06.04-.1h0v-.04s0-.03.01-.04h0s0-.05.01-.07v-.03c.04-.08.1-.15.17-.23,0,0-.01,0-.02.01-.06.04-.1.09-.15.13-.05.03-.13-.02-.08-.06.04-.03.07-.06.1-.09h0c.07-.07.14-.16.21-.21.05-.04.09-.07.13-.1l.02-.02s.06-.07.09-.11h0c.4-.39,1.07-.37,1.6-.61.21-.08.46.04.67,0,.12,0,.25,0,.38.08-.38.21-.72.43-1.06.65m.86-2.9s.12,0,.17-.08h-.33s-.04-.04-.04-.08c-.21.04-.46.12-.67.17-.29.08-.54.29-.88.38-.46.17-.83.54-1.34.71-.04,0-.04-.04-.04-.08.04-.12.21-.17.29-.29,0-.04,0-.08-.04-.08.33-.46.79-.71,1.21-1.09v-.12c.12-.17.33-.25.42-.46.04-.13.21-.29.42-.38-.04-.04-.12-.04-.12-.13-.17,0-.33.08-.5-.04.08-.08.17-.12.26-.15-.04,0-.07-.03-.09-.06-.04-.08.08-.18.21-.21.17-.04.38-.04.5-.17-.29-.04-.63.08-.92-.08.21-.54.54-1,1.04-1.25.04,0,.12,0,.12.04,0,.21-.12.38-.33.42.33.08.67.08,1,.25-.04.08-.12.04-.17.04.21.12.46.04.67.21-.12.12-.25,0-.38,0,1.3.38,2.67.67,3.76,1.5-.92.46-1.88.67-2.88.88-.13,0-.21,0-.34-.04,0,.04,0,.12-.04.12-.17,0-.29,0-.42.08-.17.08-.42.12-.54,0"/>
        <path class="cls-1" d="m63.63.73h-23.77s.05,0,.23.1c.19.11.44.24.6.32.31.16.6.36.8.67.08.12.21.38.12.54-.08.21-.12.54-.33.63-.25.13-.58.13-.88.08-.17,0-.33-.04-.5-.08.63.25,1.21.54,1.63,1.13.04.08.21.12.38.12.04,0,.04.08.04.12-.08.08-.17.13-.12.25h.12c.21-.08.17-.5.46-.38.21.12.29.42.17.63-.17.17-.33.29-.5.42-.04.08-.04.21,0,.29.13.17.17.33.21.5.12.29.17.63.29.92.17.63.33,1.25.29,1.88,0,.33-.17.63-.04.96.08.33.29.58.46.88.17.25.33.42.46.67.25.42.71.83.5,1.34-.12.29-.58.25-.88.42-.25.21-.04.54.08.75.21.38-.25.63-.54.75.08.13.25.08.29.17.04.21.25.33.12.54-.17.25-.67.38-.42.75.17.29.06.62-.04.92-.12.38-.46.54-.75.63-.25.08-.54.08-.79.04-.08-.04-.17-.08-.25-.08-.71-.08-1.42-.29-2.13-.29-.21.04-.42.08-.58.17-.19.14-.36.29-.51.45h0s-.06.07-.09.1c-.02.02-.04.04-.05.06,0,.02-.02.03-.04.04-.12.15-.23.31-.33.48,0,.01,0,.02-.02.03,0,.02-.02.04-.03.06-.14.25-.24.51-.32.77-.28.96-.16,1.78.04,1.97.05.06,1.38.46,2.3.88.43.19.73.34.99.5h23.35V.73h-.02Z"/>
        <path class="cls-5" d="m41.27,8.79c.17.04.42.04.42.12-.08.33-.58.42-.83.75h-.12c-.12.08-.08.29-.21.29-.12-.04-.25,0-.38.04.17.17.38.29.63.25.04,0,.12.08.12.17,0,0,.04,0,.08-.04.04,0,.08,0,.08.04v.17c-.12.17-.33.08-.5.13.33.08.67.08.96,0,.25-.08,0-.5.17-.71-.08,0,0-.12-.08-.12.08-.08.17-.21.25-.25.08,0,.21-.04.25-.12,0-.08-.17-.12-.12-.21.25-.17.46-.42.38-.67-.04-.12-.38-.12-.58-.21-.21-.08-.46,0-.71.04-.21,0-.42.12-.63.17-.29.08-.54.25-.79.42.29-.13.58-.17.92-.25.25,0,.46-.06.71,0"/>
      </g>
      <g class="cls-10">
        <text class="cls-9" transform="translate(0 51.53)"><tspan x="0" y="0">RÉ</tspan></text>
        <text class="cls-9" transform="translate(30.62 51.53)"><tspan x="0" y="0">P</tspan></text>
        <text class="cls-9" transform="translate(45.64 51.53)"><tspan x="0" y="0">UBLI</tspan></text>
        <text class="cls-9" transform="translate(100.75 51.53)"><tspan x="0" y="0">Q</tspan></text>
        <text class="cls-9" transform="translate(121.2 51.53)"><tspan x="0" y="0">UE</tspan></text>
      </g>
      <g class="cls-10">
        <text class="cls-9" transform="translate(0 77.09)"><tspan x="0" y="0">F</tspan></text>
        <text class="cls-11" transform="translate(13.28 77.09)"><tspan x="0" y="0">R</tspan></text>
        <text class="cls-9" transform="translate(30.38 77.09)"><tspan x="0" y="0">AN</tspan></text>
        <text class="cls-9" transform="translate(69.25 77.09)"><tspan x="0" y="0">Ç</tspan></text>
        <text class="cls-9" transform="translate(87.25 77.09)"><tspan x="0" y="0">AISE</tspan></text>
      </g>
      <path class="cls-3" d="m66.26,129.69c.53,0,.99.4.74,1.42l-2.46.57c.43-1.15,1.15-1.99,1.72-1.99m1.36,3.97h-.49c-.62.73-1.27,1.3-1.93,1.3s-1.02-.4-1.02-1.3c0-.37.04-.74.11-1.09l3.97-1.31c.77-1.83-.16-2.64-1.25-2.64-1.88,0-4.01,3.14-4.01,5.89,0,1.23.59,1.91,1.5,1.91,1.07,0,2.19-1.05,3.11-2.77m-.79-5.76l2.79-2.61v-.3h-1.51l-1.72,2.91h.44Zm-8.57,1.83h1.32l-2.09,5.72c-.19.49.07.97.57.97,1.19,0,3.11-1.18,3.78-2.78h-.37c-.53.56-1.55,1.3-2.42,1.46l1.92-5.37h1.96l.24-.82h-1.91l.73-2.06h-.76l-1.36,2.06-1.62.23v.59h0Zm-1.78-.27c.16-.53-.2-.83-.47-.83-1.15,0-2.51,1.03-3.05,2.48h.37c.37-.53,1-1.12,1.59-1.22l-2.19,5.7c-.2.53.2.83.47.83,1.09,0,2.36-1.05,2.91-2.48h-.37c-.37.53-1,1.12-1.59,1.22l2.34-5.7h-.01Zm.4-2.87c.52,0,.95-.42.95-.95s-.43-.95-.95-.95-.95.43-.95.95.42.95.95.95m-12.62,8.77c-.29.64,0,1.06.64,1.06.39,0,.56-.1.72-.52l1.52-4.03c.7-.86,2.15-1.78,2.72-1.78.42,0,.36.34.09.86l-2.34,4.49c-.23.44.07.97.57.97,1.15,0,2.51-1.03,3.05-2.48h-.37c-.37.53-1,1.12-1.59,1.22l2.01-4.05c.26-.52.39-1,.39-1.39,0-.66-.37-1.09-1.06-1.09-.99,0-1.99,1.12-3.18,2.49v-1.06c0-.76-.24-1.43-.93-1.43-.43,0-.85.37-1.23.9v.14c.74-.04,1.07,1.07.54,2.25l-1.55,3.44h0Zm-.03-4.99c.27-.93.13-1.75-.59-1.75-.85,0-1.06.64-1.92,2.49v-1.06c0-.76-.24-1.43-.93-1.43-.8,0-1.53,1.25-2.09,2.48h.37c.39-.56.74-.89,1.03-.89.34,0,.53.53,0,1.71l-1.55,3.44c-.29.64,0,1.06.64,1.06.39,0,.56-.1.72-.52l1.52-4.03c.43-.53.82-.99,1.3-1.5h1.5Zm-8.8-.69c.53,0,.99.4.74,1.42l-2.46.57c.43-1.15,1.15-1.99,1.72-1.99m1.36,3.97h-.49c-.62.73-1.28,1.3-1.93,1.3s-1.02-.4-1.02-1.3c0-.37.04-.74.11-1.09l3.97-1.31c.77-1.83-.16-2.64-1.25-2.64-1.88,0-4.01,3.14-4.01,5.89,0,1.23.59,1.91,1.51,1.91,1.07,0,2.19-1.05,3.11-2.77m-9.36-3.93h1.32l-2.09,5.72c-.19.49.07.97.57.97,1.19,0,3.11-1.18,3.78-2.78h-.37c-.53.56-1.55,1.3-2.42,1.46l1.92-5.37h1.96l.24-.82h-1.91l.73-2.06h-.76l-1.36,2.06-1.62.23v.59h.01Zm-7.23,4.46c0-1.76,1.96-4.16,3.07-4.16.24,0,.47.03.67.09l-1.15,3.05c-.66.8-1.68,1.78-2.15,1.78-.27,0-.44-.23-.44-.76m6.03-5.89l-.6-.04-.67.66h-.14c-3.27,0-6.09,3.67-6.09,6.33,0,.75.46,1.18,1.17,1.18.85,0,1.68-1.2,2.61-2.49l-.04.46c-.11,1.32.29,2.04.97,2.04.8,0,1.53-1.25,2.09-2.48h-.37c-.39.56-.75.89-1.03.89-.3,0-.52-.54,0-1.71l2.11-4.83h0Zm-6.96,2.08c.27-.93.13-1.75-.59-1.75-.85,0-1.06.64-1.92,2.49v-1.06c0-.76-.24-1.43-.93-1.43-.8,0-1.53,1.25-2.09,2.48h.37c.39-.56.74-.89,1.03-.89.34,0,.53.53,0,1.71l-1.55,3.44c-.29.64.01,1.06.65,1.06.39,0,.56-.1.72-.52l1.52-4.03c.43-.53.82-.99,1.3-1.5h1.49Zm-10.98,5.76l.14-.44c-1.91-.36-2.15-.36-1.39-2.44l.77-2.13h2.11c.95,0,.96.39.82,1.42h.54l1.26-3.45h-.54c-.47.82-.85,1.42-1.88,1.42h-2.08l1.1-3.02c.35-.96.54-1.16,1.83-1.16h.92c1.33,0,1.49.36,1.49,1.71h.53l.44-2.35h-7.87l-.14.44c1.53.32,1.68.46.96,2.44l-1.72,4.7c-.72,1.96-1.02,2.12-2.78,2.44l-.13.44h5.65l-.03-.02Z"/>
      <path class="cls-3" d="m47.08,111.78c.53,0,.99.4.74,1.42l-2.46.57c.43-1.15,1.15-1.99,1.72-1.99m1.36,3.97h-.49c-.62.73-1.27,1.3-1.93,1.3s-1.02-.4-1.02-1.3c0-.37.04-.75.11-1.09l3.97-1.3c.77-1.83-.16-2.64-1.25-2.64-1.88,0-4.01,3.14-4.01,5.89,0,1.23.59,1.9,1.5,1.9,1.08,0,2.19-1.05,3.11-2.76m-.79-5.76l2.79-2.61v-.3h-1.51l-1.72,2.91h.44Zm-8.57,1.83h1.32l-2.09,5.72c-.19.49.07.97.57.97,1.19,0,3.11-1.18,3.78-2.78h-.37c-.53.56-1.55,1.3-2.42,1.46l1.92-5.37h1.96l.24-.82h-1.91l.73-2.06h-.76l-1.36,2.06-1.62.23v.59h0Zm-1.78-.27c.16-.53-.2-.83-.47-.83-1.15,0-2.51,1.03-3.05,2.48h.37c.37-.53,1-1.12,1.59-1.22l-2.19,5.7c-.2.53.2.83.47.83,1.09,0,2.36-1.05,2.91-2.48h-.37c-.37.53-1,1.12-1.59,1.22l2.34-5.7h-.01Zm.4-2.87c.52,0,.95-.42.95-.95s-.43-.95-.95-.95-.95.43-.95.95.42.95.95.95m-7.62,8.57l4-10.48-.13-.16-2.51.29v.3l.49.37c.44.34.3.67-.1,1.73l-3.12,8.22c-.23.44.07.97.57.97,1.15,0,2.36-1.03,2.91-2.48h-.37c-.37.53-1.15,1.12-1.73,1.22m-7.59-.98c0-1.76,1.96-4.15,3.07-4.15.24,0,.47.03.67.09l-1.15,3.05c-.66.8-1.68,1.78-2.15,1.78-.27,0-.44-.23-.44-.76m6.03-5.89l-.6-.04-.67.66h-.14c-3.27,0-6.09,3.67-6.09,6.33,0,.75.46,1.18,1.18,1.18.85,0,1.68-1.2,2.61-2.49l-.04.46c-.12,1.32.29,2.03.97,2.03.8,0,1.53-1.25,2.09-2.48h-.37c-.39.56-.75.89-1.03.89-.3,0-.52-.54,0-1.7l2.11-4.83h-.02Zm-14.59,9.51c0-.76.73-1.23,1.78-1.65.34.17.86.36,1.55.59,1.09.36,1.51.5,1.51.83,0,.7-1.19,1.23-2.81,1.23-1.36,0-2.02-.29-2.02-1m2.97-4.63c-.47,0-.66-.4-.66-.86,0-1.28.69-3.15,1.76-3.15.47,0,.66.4.66.86,0,1.28-.69,3.15-1.76,3.15m3.11,3.93c0-.92-.82-1.25-2.15-1.65-1.15-.34-1.66-.44-1.66-.82,0-.3.24-.66.73-.92,1.88-.1,3.1-1.79,3.1-3.21,0-.3-.06-.56-.16-.79h1.59l.24-.82h-2.52c-.3-.19-.66-.29-1.02-.29-1.99,0-3.28,1.75-3.28,3.17,0,1.07.69,1.75,1.52,1.91-.93.42-1.45.9-1.45,1.48,0,.33.11.56.39.77-2.15.63-2.99,1.35-2.99,2.36s1.3,1.4,2.85,1.4c2.62,0,4.81-1.42,4.81-2.61m-10.02-6.13c.95,0,.96.39.82,1.42h.55l1.26-3.45h-.54c-.47.82-.85,1.42-1.88,1.42h-2.08l1.04-2.88c.35-.96.55-1.15,1.84-1.15h.92c1.33,0,1.49.36,1.49,1.69h.53l.44-2.35h-7.92l-.14.44c1.53.32,1.68.46.96,2.44l-1.72,4.7c-.72,1.96-1.02,2.12-2.78,2.44l-.13.44h8.8l1.58-2.49h-.6c-1,.94-2.26,1.85-4.03,1.85-2.34,0-2.12-.1-1.35-2.24l.83-2.28h2.11Zm1.15-6l2.79-1.92v-.3h-1.69l-1.55,2.22h.45Z"/>
      <path class="cls-3" d="m46.15,93.87c.53,0,.99.4.74,1.42l-2.46.57c.43-1.15,1.15-1.99,1.72-1.99m1.36,3.97h-.49c-.62.73-1.27,1.3-1.93,1.3s-1.02-.4-1.02-1.3c0-.37.04-.74.11-1.09l3.97-1.3c.77-1.83-.16-2.64-1.25-2.64-1.88,0-4.01,3.14-4.01,5.89,0,1.23.59,1.91,1.5,1.91,1.07,0,2.19-1.05,3.11-2.76m-.79-5.76l2.79-2.61v-.3h-1.5l-1.72,2.91h.43Zm-8.21,1.83h1.05l-2.09,5.72c-.19.49.07.97.57.97,1.19,0,3.11-1.18,3.78-2.78h-.37c-.53.56-1.55,1.3-2.42,1.46l1.92-5.37h1.96l.24-.82h-1.91l.73-2.06h-.76l-1.36,2.06-1.35.23v.59h.01Zm-1.03.64c.27-.93.13-1.75-.59-1.75-.85,0-1.06.64-1.92,2.49v-1.06c0-.76-.24-1.43-.93-1.43-.8,0-1.53,1.25-2.09,2.48h.37c.39-.56.74-.89,1.03-.89.34,0,.53.53,0,1.7l-1.55,3.44c-.29.64.01,1.06.65,1.06.39,0,.56-.1.72-.52l1.52-4.03c.43-.53.82-.99,1.31-1.5h1.49-.01Zm-8.8-.69c.53,0,.99.4.74,1.42l-2.46.57c.43-1.15,1.15-1.99,1.72-1.99m1.36,3.97h-.49c-.62.73-1.27,1.3-1.93,1.3s-1.02-.4-1.02-1.3c0-.37.04-.74.11-1.09l3.97-1.3c.77-1.83-.16-2.64-1.25-2.64-1.88,0-4.01,3.14-4.01,5.89,0,1.23.59,1.91,1.5,1.91,1.08,0,2.19-1.05,3.11-2.76m-9.73,1.61c-.39,0-.95-.36-.95-.67,0-.1.17-.54.39-1.1l.64-1.71c.69-.82,1.73-1.69,2.32-1.69.36,0,.63.23.63.76,0,1.56-1.46,4.41-3.04,4.41m4.51-5.04c0-1.16-.43-1.59-1.23-1.59-1,0-1.95,1.06-2.89,2.35l2.39-6.29-.13-.16-2.51.29v.3l.49.37c.44.35.3.7-.1,1.73l-2.58,6.65c-.19.49-.42,1.06-.42,1.22,0,.69.93,1.33,1.78,1.33,1.95,0,5.2-3.51,5.2-6.2m-7.79-.76c.16-.53-.2-.83-.47-.83-1.15,0-2.51,1.03-3.05,2.48h.37c.37-.53,1-1.12,1.59-1.22l-2.19,5.7c-.2.53.2.83.47.83,1.09,0,2.36-1.05,2.91-2.48h-.37c-.37.53-1,1.12-1.59,1.22l2.34-5.7h-.01Zm.4-2.87c.52,0,.95-.42.95-.95s-.43-.95-.95-.95-.94.43-.94.95.41.95.94.95m-5.77-.92h-5.19l-.14.44c1.53.32,1.68.46.96,2.44l-1.69,4.7c-.72,1.96-1.02,2.12-2.78,2.44l-.13.44h7.94l1.72-3.07h-.6c-.98,1.08-2.12,2.42-3.88,2.42-1.33,0-1.49-.23-.77-2.23l1.69-4.7c.7-1.96,1.02-2.12,2.78-2.44l.13-.44h-.04Z"/>
    </g>
  </g>
</svg>